# xmcd CD database file
#
# Track frame offsets:
#	150
#	15835
#	29199
#	41743
#	55828
#	73772
#	91053
#	104934
#	122391
#	138314
#	160916
#	177998
#	193649
#
# Disc length: 2752 seconds
#
# Revision: 0
# Processed by: cddbd v1.5.1PL0 Copyright (c) Steve Scherf et al.
# Submitted via: CDex 1.51
#
DISCID=b20abe0d
DTITLE=Clay Walker - Live In Nacogdoches, TX 1995
DYEAR=1995
DGENRE=Country
TTITLE0=Boogie Til The Cows Come Home
TTITLE1=Money Can't Buy The Love We Had
TTITLE2=Live Until I Die
TTITLE3=Melrose Avenue
TTITLE4=Where Do I Fit In The Picture
TTITLE5=Suspicious Minds
TTITLE6=White Palace
TTITLE7=This Woman, This man
TTITLE8=Dreaming Wiht My Eyes Wide Open
TTITLE9=Sweet Home Alabama
TTITLE10=If I Could Make A Living
TTITLE11=My Heart Will Never Know
TTITLE12=What's It To You
EXTD=YEAR: 1995
EXTT0=
EXTT1=
EXTT2=
EXTT3=
EXTT4=
EXTT5=
EXTT6=
EXTT7=
EXTT8=
EXTT9=
EXTT10=
EXTT11=
EXTT12=
PLAYORDER=
